name analog
datacolumns 19
datarows 33
range 0.0 0.016
endheader
time	ground_force_vx	ground_force_vy	ground_force_vz	ground_force_px	ground_force_py	ground_force_pz	l_ground_force_vx	l_ground_force_vy	l_ground_force_vz	l_ground_force_px	l_ground_force_py	l_ground_force_pz	ground_torque_x	ground_torque_y	ground_torque_z	l_ground_torque_x	l_ground_torque_y	l_ground_torque_z
0.0	-0.0	-0.0	-0.0	6.53047513961792	15.02818202972412	-478.771240234375	-7.859821796417236	-16.003751754760742	-237.6327667236328	-0.0	-0.0	-0.0	-0.0	-0.0	-0.0	84156.265625	14831.9326171875	-5277.92626953125
0.0005	-0.0	-0.0	-0.0	6.281102180480957	14.491921424865724	-478.1302795410156	-7.983970642089844	-15.773920059204102	-238.74920654296875	-0.0	-0.0	-0.0	-0.0	-0.0	-0.0	84012.2578125	14743.9404296875	-5266.20849609375
0.001	-0.0	-0.0	-0.0	6.708024024963379	14.47457504272461	-479.82708740234375	-8.268074989318848	-15.915796279907228	-238.26060485839844	-0.0	-0.0	-0.0	-0.0	-0.0	-0.0	84032.6640625	14972.5810546875	-5147.619140625
0.0015	-0.0	-0.0	-0.0	6.673637390136719	14.509968757629396	-478.2056274414063	-8.250819206237793	-16.21600341796875	-237.7012939453125	-0.0	-0.0	-0.0	-0.0	-0.0	-0.0	84036.40625	14740.7412109375	-5284.1572265625
0.002	-0.0	-0.0	-0.0	6.2447357177734375	14.243842124938965	-478.1329040527344	-8.214798927307129	-15.862754821777344	-237.56204223632807	-0.0	-0.0	-0.0	-0.0	-0.0	-0.0	84043.1328125	14765.3056640625	-5230.74267578125
0.0025	-0.0	-0.0	-0.0	6.673863887786865	14.72342586517334	-479.70355224609375	-8.303547859191895	-15.86387825012207	-237.41880798339844	-0.0	-0.0	-0.0	-0.0	-0.0	-0.0	83857.8125	14749.0576171875	-5349.82666015625
0.003	-0.0	-0.0	-0.0	6.586391448974609	14.277695655822754	-480.89111328125	-7.983970642089844	-16.144718170166016	-237.70530700683597	-0.0	-0.0	-0.0	-0.0	-0.0	-0.0	84071.578125	14674.3486328125	-5266.001953125
0.0035	-0.0	-0.0	-0.0	6.172258377075195	14.49112606048584	-480.3983154296875	-7.913565158843994	-15.791357040405272	-237.8387451171875	-0.0	-0.0	-0.0	-0.0	-0.0	-0.0	84052.109375	14677.427734375	-5278.06640625
0.004	-0.0	-0.0	-0.0	6.406537055969238	14.40184497833252	-480.8914184570313	-8.037516593933105	-15.89631462097168	-239.2349090576172	-0.0	-0.0	-0.0	-0.0	-0.0	-0.0	83782.3125	14880.5078125	-5189.2021484375
0.0045000000000000005	-0.0	-0.0	-0.0	6.29869556427002	14.882611274719238	-479.6666870117188	-8.142959594726562	-16.074546813964844	-237.98309326171875	-0.0	-0.0	-0.0	-0.0	-0.0	-0.0	84199.8515625	14642.78515625	-5225.15869140625
0.005	-0.0	-0.0	-0.0	6.709572792053223	14.530609130859377	-480.7522583007813	-8.000565528869629	-15.914424896240234	-238.6815490722656	-0.0	-0.0	-0.0	-0.0	-0.0	-0.0	84165.3515625	14637.5439453125	-5265.81640625
0.0055	-0.0	-0.0	-0.0	6.636753082275391	14.598543167114258	-479.8423767089844	-8.12842845916748	-15.791081428527832	-237.63424682617188	-0.0	-0.0	-0.0	-0.0	-0.0	-0.0	83866.0546875	14502.9814453125	-5247.8994140625
0.006	-0.0	-0.0	-0.0	6.101463794708252	14.81186866760254	-479.9715576171875	-8.499831199645996	-15.96767234802246	-239.0955047607422	-0.0	-0.0	-0.0	-0.0	-0.0	-0.0	84194.6640625	14611.37890625	-5319.21826171875
0.006500000000000001	-0.0	-0.0	-0.0	6.350069999694824	14.441986083984377	-481.53460693359375	-7.967679500579834	-15.96759796142578	-238.8197021484375	-0.0	-0.0	-0.0	-0.0	-0.0	-0.0	84050.2734375	14746.4453125	-5331.2890625
0.007	-0.0	-0.0	-0.0	6.01217794418335	14.493213653564451	-481.1065673828125	-8.250102996826172	-16.106761932373047	-238.19532775878903	-0.0	-0.0	-0.0	-0.0	-0.0	-0.0	83965.546875	14776.6474609375	-5313.54052734375
0.0075	-0.0	-0.0	-0.0	6.120473384857178	14.49323558807373	-482.8726196289063	-8.088783264160156	-16.128084182739258	-237.63473510742188	-0.0	-0.0	-0.0	-0.0	-0.0	-0.0	83858.3125	14808.3857421875	-5254.0859375
0.008	-0.0	-0.0	-0.0	5.942090034484863	14.674881935119627	-482.6451110839844	-8.034859657287598	-15.82550048828125	-237.90960693359372	-0.0	-0.0	-0.0	-0.0	-0.0	-0.0	83923.96875	14533.0263671875	-5313.2734375
0.0085	-0.0	-0.0	-0.0	5.942127704620361	14.884777069091797	-482.5200500488281	-8.269088745117188	-15.812677383422852	-237.760009765625	-0.0	-0.0	-0.0	-0.0	-0.0	-0.0	84055.296875	14705.0625	-5255.12353515625
0.009000000000000001	-0.0	-0.0	-0.0	6.5592241287231445	14.764436721801758	-482.5203247070313	-8.288200378417969	-16.14715576171875	-237.2110290527344	-0.0	-0.0	-0.0	-0.0	-0.0	-0.0	83873.0078125	14448.357421875	-5338.96826171875
0.0095	-0.0	-0.0	-0.0	6.527894496917725	14.725884437561035	-482.8737182617188	-7.930062770843506	-15.66758918762207	-237.347900390625	-0.0	-0.0	-0.0	-0.0	-0.0	-0.0	83875.0	14723.7431640625	-5218.8525390625
0.01	-0.0	-0.0	-0.0	6.364774703979492	14.2608642578125	-480.4627990722656	-8.269282341003418	-15.790486335754396	-236.8002777099609	-0.0	-0.0	-0.0	-0.0	-0.0	-0.0	83732.515625	14343.26171875	-5243.58984375
0.0105	-0.0	-0.0	-0.0	6.853908061981201	14.29567050933838	-483.4259948730469	-7.860531806945801	-15.705854415893556	-237.28640747070312	-0.0	-0.0	-0.0	-0.0	-0.0	-0.0	83687.890625	14507.5595703125	-5253.67578125
0.011	-0.0	-0.0	-0.0	6.79522180557251	14.56739616394043	-482.5040588378906	-7.910655498504639	-15.809581756591797	-236.5882110595703	-0.0	-0.0	-0.0	-0.0	-0.0	-0.0	83472.0703125	14388.3173828125	-5307.90087890625
0.0115	-0.0	-0.0	-0.0	6.760335445404053	14.236669540405272	-483.3656921386719	-8.018635749816895	-15.759852409362791	-236.8010711669922	-0.0	-0.0	-0.0	-0.0	-0.0	-0.0	83524.140625	14567.0126953125	-5260.2412109375
0.012	-0.0	-0.0	-0.0	6.993155479431152	14.562959671020508	-482.7969970703125	-8.21976089477539	-15.65230941772461	-237.0908050537109	-0.0	-0.0	-0.0	-0.0	-0.0	-0.0	83262.53125	14646.7919921875	-5225.61962890625
0.0125	-0.0	-0.0	-0.0	7.290598392486572	14.186638832092283	-482.5619201660156	-7.999063491821289	-15.333523750305176	-236.66539001464844	-0.0	-0.0	-0.0	-0.0	-0.0	-0.0	83273.5703125	14477.30078125	-5218.88427734375
0.013000000000000001	-0.0	-0.0	-0.0	7.285650730133057	14.176790237426758	-483.640625	-8.038117408752441	-15.22574234008789	-236.37564086914065	-0.0	-0.0	-0.0	-0.0	-0.0	-0.0	83370.28125	14611.1572265625	-5200.791015625
0.0135	-0.0	-0.0	-0.0	7.122148513793945	14.508331298828123	-484.641845703125	-7.776812553405762	-15.441492080688477	-236.93804931640625	-0.0	-0.0	-0.0	-0.0	-0.0	-0.0	83158.765625	14373.51171875	-5284.68017578125
0.014	-0.0	-0.0	-0.0	6.983794689178467	14.493678092956545	-482.9339904785156	-8.324024200439453	-15.441570281982422	-235.52218627929688	-0.0	-0.0	-0.0	-0.0	-0.0	-0.0	83223.71875	14527.1767578125	-5166.439453125
0.0145	-0.0	-0.0	-0.0	7.156910419464111	14.240812301635742	-483.5827941894531	-8.358598709106445	-15.279651641845703	-236.14202880859372	-0.0	-0.0	-0.0	-0.0	-0.0	-0.0	83163.8359375	14470.625	-5321.39697265625
0.015	-0.0	-0.0	-0.0	7.562748432159424	14.206235885620115	-483.5261535644531	-8.107107162475586	-15.240105628967283	-235.8336639404297	-0.0	-0.0	-0.0	-0.0	-0.0	-0.0	83201.796875	14319.634765625	-5337.65234375
0.0155	-0.0	-0.0	-0.0	7.130972385406494	14.186041831970217	-485.4058532714844	-7.924257755279541	-15.382408142089844	-236.5323181152344	-0.0	-0.0	-0.0	-0.0	-0.0	-0.0	83063.3125	14362.0341796875	-5330.90966796875
0.016	-0.0	-0.0	-0.0	7.623423099517822	14.171733856201172	-484.9400329589844	-8.270082473754883	-15.063224792480469	-236.1617431640625	-0.0	-0.0	-0.0	-0.0	-0.0	-0.0	83192.25	14404.6328125	-5360.7265625
